<svg width="25" height="25" viewBox="0 0 25 25" fill="none" xmlns="http://www.w3.org/2000/svg">
<path d="M7.03125 12.1582H5.46875C5.06426 12.1582 4.73633 12.4861 4.73633 12.8906C4.73633 13.2951 5.06426 13.623 5.46875 13.623H7.03125C7.43574 13.623 7.76367 13.2951 7.76367 12.8906C7.76367 12.4861 7.43574 12.1582 7.03125 12.1582Z" fill="#FFFFFF"/>
<path d="M7.03125 15.2832H5.46875C5.06426 15.2832 4.73633 15.6111 4.73633 16.0156C4.73633 16.4201 5.06426 16.748 5.46875 16.748H7.03125C7.43574 16.748 7.76367 16.4201 7.76367 16.0156C7.76367 15.6111 7.43574 15.2832 7.03125 15.2832Z" fill="#FFFFFF"/>
<path d="M7.03125 18.4082H5.46875C5.06426 18.4082 4.73633 18.7361 4.73633 19.1406C4.73633 19.5451 5.06426 19.873 5.46875 19.873H7.03125C7.43574 19.873 7.76367 19.5451 7.76367 19.1406C7.76367 18.7361 7.43574 18.4082 7.03125 18.4082Z" fill="#FFFFFF"/>
<path d="M13.2812 12.1582H11.7188C11.3143 12.1582 10.9863 12.4861 10.9863 12.8906C10.9863 13.2951 11.3143 13.623 11.7188 13.623H13.2812C13.6857 13.623 14.0137 13.2951 14.0137 12.8906C14.0137 12.4861 13.6857 12.1582 13.2812 12.1582Z" fill="#FFFFFF"/>
<path d="M13.2812 15.2832H11.7188C11.3143 15.2832 10.9863 15.6111 10.9863 16.0156C10.9863 16.4201 11.3143 16.748 11.7188 16.748H13.2812C13.6857 16.748 14.0137 16.4201 14.0137 16.0156C14.0137 15.6111 13.6857 15.2832 13.2812 15.2832Z" fill="#FFFFFF"/>
<path d="M13.2812 18.4082H11.7188C11.3143 18.4082 10.9863 18.7361 10.9863 19.1406C10.9863 19.5451 11.3143 19.873 11.7188 19.873H13.2812C13.6857 19.873 14.0137 19.5451 14.0137 19.1406C14.0137 18.7361 13.6857 18.4082 13.2812 18.4082Z" fill="#FFFFFF"/>
<path d="M19.5312 12.1582H17.9688C17.5643 12.1582 17.2363 12.4861 17.2363 12.8906C17.2363 13.2951 17.5643 13.623 17.9688 13.623H19.5312C19.9357 13.623 20.2637 13.2951 20.2637 12.8906C20.2637 12.4861 19.9357 12.1582 19.5312 12.1582Z" fill="#FFFFFF"/>
<path d="M19.5312 15.2832H17.9688C17.5643 15.2832 17.2363 15.6111 17.2363 16.0156C17.2363 16.4201 17.5643 16.748 17.9688 16.748H19.5312C19.9357 16.748 20.2637 16.4201 20.2637 16.0156C20.2637 15.6111 19.9357 15.2832 19.5312 15.2832Z" fill="#FFFFFF"/>
<path d="M19.5312 18.4082H17.9688C17.5643 18.4082 17.2363 18.7361 17.2363 19.1406C17.2363 19.5451 17.5643 19.873 17.9688 19.873H19.5312C19.9357 19.873 20.2637 19.5451 20.2637 19.1406C20.2637 18.7361 19.9357 18.4082 19.5312 18.4082Z" fill="#FFFFFF"/>
<path d="M22.8027 3.17383H21.0449V1.95312C21.0449 1.54863 20.717 1.2207 20.3125 1.2207C19.908 1.2207 19.5801 1.54863 19.5801 1.95312V3.17383H13.2324V1.95312C13.2324 1.54863 12.9045 1.2207 12.5 1.2207C12.0955 1.2207 11.7676 1.54863 11.7676 1.95312V3.17383H5.41992V1.95312C5.41992 1.54863 5.09199 1.2207 4.6875 1.2207C4.28301 1.2207 3.95508 1.54863 3.95508 1.95312V3.17383H2.19727C0.985693 3.17383 0 4.15952 0 5.37109V21.582C0 22.7936 0.985693 23.7793 2.19727 23.7793H22.8027C24.0143 23.7793 25 22.7936 25 21.582C25 21.1093 25 5.78247 25 5.37109C25 4.15952 24.0143 3.17383 22.8027 3.17383ZM1.46484 5.37109C1.46484 4.96724 1.79341 4.63867 2.19727 4.63867H3.95508V5.85938C3.95508 6.26387 4.28301 6.5918 4.6875 6.5918C5.09199 6.5918 5.41992 6.26387 5.41992 5.85938V4.63867H11.7676V5.85938C11.7676 6.26387 12.0955 6.5918 12.5 6.5918C12.9045 6.5918 13.2324 6.26387 13.2324 5.85938V4.63867H19.5801V5.85938C19.5801 6.26387 19.908 6.5918 20.3125 6.5918C20.717 6.5918 21.0449 6.26387 21.0449 5.85938V4.63867H22.8027C23.2066 4.63867 23.5352 4.96724 23.5352 5.37109V8.25195H1.46484V5.37109ZM22.8027 22.3145H2.19727C1.79341 22.3145 1.46484 21.9859 1.46484 21.582V9.7168H23.5352V21.582C23.5352 21.9859 23.2066 22.3145 22.8027 22.3145Z" fill="#FFFFFF"/>
</svg>
