<svg width="26" height="26" viewBox="0 0 26 26" fill="none" xmlns="http://www.w3.org/2000/svg">
<path d="M25.3229 24.4834H0.677093C0.303145 24.4834 0 24.7865 0 25.1605C0 25.5344 0.303145 25.8376 0.677093 25.8376H25.3229C25.6969 25.8376 26 25.5344 26 25.1605C26 24.7865 25.6969 24.4834 25.3229 24.4834Z" fill="#ffffff"/>
<path d="M5.09169 13.5957H1.08337V23.4H5.09169V13.5957Z" fill="#ffffff"/>
<path d="M10.0751 8.8833H6.06677V23.4001H10.0751V8.8833Z" fill="#ffffff"/>
<path d="M15.0041 11.1045H10.9957V23.4002H15.0041V11.1045Z" fill="#ffffff"/>
<path d="M19.9877 15.7085H15.9794V23.346H19.9877V15.7085Z" fill="#ffffff"/>
<path d="M24.9165 7.15039H20.9082V23.3461H24.9165V7.15039Z" fill="#ffffff"/>
</svg>
