<svg width="20" height="25" viewBox="0 0 20 25" fill="none" xmlns="http://www.w3.org/2000/svg">
<path d="M19.9379 5.58796L19.3973 3.93333C19.1914 3.30315 18.6158 2.87971 17.9653 2.87971H13.4211V1.36929C13.4211 0.614357 12.8199 0 12.0807 0H7.91933C7.18026 0 6.57887 0.614357 6.57887 1.36929V2.87971H2.03492C1.38421 2.87971 0.808603 3.30315 0.602722 3.93333L0.0620521 5.58796C-0.0610653 5.96466 0.00133409 6.3818 0.2287 6.70395C0.456065 7.0261 0.823923 7.21855 1.21289 7.21855H1.77804L3.02191 22.9219C3.11439 24.0871 4.08289 25 5.22719 25H15.0252C16.1693 25 17.138 24.0871 17.2303 22.9218L18.4742 7.21855H18.7871C19.1761 7.21855 19.5439 7.0261 19.7713 6.70414C19.9987 6.38199 20.0611 5.96466 19.9379 5.58796ZM8.01368 1.46484H11.9863V2.87971H8.01368V1.46484ZM15.8002 22.8037C15.7676 23.214 15.4273 23.5352 15.0252 23.5352H5.22719C4.82515 23.5352 4.48475 23.214 4.45224 22.8037L3.21752 7.21855H17.0347L15.8002 22.8037ZM1.52059 5.75371L1.96393 4.39682C1.97402 4.36554 2.0026 4.34456 2.03492 4.34456H17.9653C17.9976 4.34456 18.026 4.36554 18.0363 4.39682L18.4796 5.75371H1.52059Z" fill="#333333"/>
<path d="M13.3064 22.4992C13.3215 22.5 13.3363 22.5002 13.3514 22.5002C13.8008 22.5002 14.1765 22.2073 14.2 21.8296L14.9988 9.07783C15.0232 8.68766 14.6626 8.35478 14.1936 8.33452C13.7233 8.3137 13.3243 8.61397 13.2998 9.00414L12.5012 21.7559C12.4768 22.1461 12.8372 22.479 13.3064 22.4992Z" fill="#333333"/>
<path d="M5.82524 21.8313C5.84968 22.2084 6.21934 22.5002 6.66123 22.5002C6.6765 22.5002 6.69222 22.4998 6.70771 22.4991C7.16967 22.4779 7.52384 22.1444 7.49874 21.7543L6.67454 9.00236C6.64945 8.61219 6.25447 8.3132 5.79229 8.33457C5.33033 8.35576 4.97616 8.68919 5.00126 9.07937L5.82524 21.8313Z" fill="#333333"/>
<path d="M10 22.5002C10.4603 22.5002 10.8334 22.1835 10.8334 21.7928V9.04089C10.8334 8.65017 10.4603 8.3335 10 8.3335C9.53973 8.3335 9.16669 8.65017 9.16669 9.04089V21.7928C9.16669 22.1835 9.53973 22.5002 10 22.5002Z" fill="#333333"/>
</svg>
