<svg width="20" height="26" viewBox="0 0 20 26" fill="none" xmlns="http://www.w3.org/2000/svg">
<path d="M12.7263 1.01607L12.7204 1.01027C12.611 0.897462 12.4601 0.834348 12.3027 0.836162C12.2833 0.835255 12.2637 0.837069 12.2446 0.842147H3.33257C1.73061 0.842509 0.432244 2.14105 0.431519 3.7432V22.3098C0.432244 23.9118 1.73061 25.2104 3.33257 25.2109H16.254C17.856 25.2104 19.1545 23.9118 19.155 22.3098V7.67674C19.154 7.52312 19.0937 7.37568 18.9867 7.26505L12.7263 1.01607ZM12.8829 2.81481L17.188 7.10835H14.6236C13.6634 7.10545 12.8856 6.32777 12.8829 5.36783V2.81481ZM16.2598 24.0447H3.33257C2.37244 24.042 1.59495 23.2642 1.59187 22.304V3.73721C1.59495 2.77727 2.37244 1.99941 3.33257 1.99669H11.7225V5.36783C11.7231 6.96961 13.0216 8.26815 14.6236 8.26888H17.9947V22.304C17.9965 23.2638 17.2196 24.0435 16.2598 24.0447Z" fill="#E4E5E6"/>
</svg>
