<svg width="21" height="21" viewBox="0 0 21 21" fill="none" xmlns="http://www.w3.org/2000/svg">
<path d="M12.4239 10.518L20.6009 2.34078C21.1331 1.80888 21.1331 0.948883 20.6009 0.416988C20.069 -0.114907 19.209 -0.114907 18.6771 0.416988L10.4999 8.59422L2.3229 0.416988C1.79076 -0.114907 0.931004 -0.114907 0.399108 0.416988C-0.133036 0.948883 -0.133036 1.80888 0.399108 2.34078L8.5761 10.518L0.399108 18.6952C-0.133036 19.2271 -0.133036 20.0871 0.399108 20.619C0.664184 20.8844 1.01272 21.0176 1.361 21.0176C1.70929 21.0176 2.05758 20.8844 2.3229 20.619L10.4999 12.4418L18.6771 20.619C18.9424 20.8844 19.2907 21.0176 19.639 21.0176C19.9873 21.0176 20.3356 20.8844 20.6009 20.619C21.1331 20.0871 21.1331 19.2271 20.6009 18.6952L12.4239 10.518Z" fill="black"/>
</svg>
